<svg xmlns="http://www.w3.org/2000/svg" width="124" height="50" fill="none"><path fill="#00FF60" fill-rule="evenodd" d="M32.3135 34.2623c-.6541 2.9096-2.0951 5.6036-4.323 8.0821-.7735.8436-1.6023 1.6348-2.481 2.3682-.577.5019-1.1277.983-1.6803 1.5544-.3006.3243-.5829.6651-.8458 1.0206-.3704.5198-.7916 1.0015-1.2574 1.4378-.5235-.0343-1.0333-.1818-1.4943-.4323-.8044-.4059-1.528-1.0168-2.3682-1.4566-1.6484-.859-3.184-1.248-5.1763-2.3701-5.61733-3.1652-8.61708-8.089-8.99925-14.7714-.32579-6.5897 2.68148-12.3674 9.02185-17.3332.2504-.2333.4623-.5048.6277-.8044.0207-.047.0433-.0902.0658-.1353.3058-.5827.7337-.864 1.2838-.844l1.8569-.1992c.0976.0811.1899.1684.2763.2613.1919.1661.4065.304.6372.4097 3.8719 1.3646 7.012 3.2015 9.4203 5.5108 2.4102 2.2862 4.1539 5.1844 5.0447 8.3847.9097 3.3055 1.0394 6.4099.3891 9.3132" clip-rule="evenodd"/><path fill="#000" d="M32.3146 34.2621c-.6541 2.9096-2.0951 5.6036-4.323 8.0821-.7735.8436-1.6023 1.6348-2.481 2.3682-.577.5019-1.1277.983-1.6803 1.5544-.3006.3244-.5829.6651-.8458 1.0206-.3704.5198-.7916 1.0015-1.2574 1.4379-.66.595-1.5021.9488-2.389 1.0036-1.5619.1316-2.6933-.577-3.8436-1.2968-.4657-.3087-.9525-.5844-1.4567-.8252-.5526-.2424-1.186-.4962-1.8476-.7518-1.7329-.686-3.64817-1.4491-5.05971-2.4434-1.60922-1.117-3.01378-2.5031-4.15192-4.0974-.11466-.1579-.22367-.3177-.33081-.4812-.05236-.1422-.04708-.2992.01472-.4376.06181-.1383.17524-.247.31609-.3029.13575-.0696.29074-.0922.44072-.0643.14998.0279.28648.1047.38815.2184.00516.0067.01082.013.01692.0188 1.10347 1.6455 2.50611 3.0692 4.13501 4.197 1.30064.9172 3.13693 1.6484 4.79853 2.3119.6691.2631 1.3156.5187 1.8927.7781.5612.2608 1.1016.5643 1.6164.9078.9623.6015 1.9077 1.1954 2.9979 1.0996.339-.0252.6695-.1186.9717-.2745.6973-.3496 1.1897-.9867 1.6916-1.6389.2921-.3931.6058-.7696.9397-1.1277.5771-.6034 1.1635-1.1109 1.7687-1.6371.8357-.6991 1.6243-1.4525 2.3607-2.2555 2.0876-2.3256 3.4371-4.8455 4.0486-7.5595.6114-2.7141.4861-5.6468-.376-8.7982-.8364-3.011-2.4733-5.7391-4.7364-7.8941-2.2855-2.1953-5.2866-3.9439-9.0031-5.2458-.0424-.0151-.0827-.0353-.1202-.0602-.3584-.1653-.6872-.3882-.9737-.6597-.1391-.1614-.316-.286-.5149-.3627-.1139-.0337-.2358-.0278-.3459.0169-.0418.0161-.0853.0274-.1297.0338l-1.4247.3214-1.9303.4361c-.1504.0371-.2879.1144-.3978.2237-.11.1092-.1881.2463-.2262.3965-.0115.0305-.0253.06-.0413.0884-.2052.3853-.4798.7294-.8101 1.0149-.44817.4109-.92627.7878-1.43034 1.1277-2.54867 2.2091-4.42821 4.6695-5.63864 7.381-1.11691 2.527-1.68268 5.263-1.65965 8.0257 0 .2368 0 .4736.01316.7124v.1108c.00183.0144.00183.0289 0 .0433-.01333.0803-.04287.157-.08682.2255-.04394.0685-.10137.1273-.16879.1729-.094879.065-.203797.1065-.317821.1212-.114023.0147-.229913.0022-.338156-.0366-.098811-.0338-.18627-.0945-.252644-.1751-.0663745-.0806-.1090557-.1781-.1232651-.2816v-.577c-.0650937-3.0087.5296271-5.9951 1.7423461-8.7493 1.28686-2.882 3.28044-5.4896 5.98072-7.8227.0188-.0169.04135-.032.06015-.047.46099-.3082.90056-.6473 1.31568-1.015.21054-.1847.39123-.4009.53567-.6409.10738-.3468.30145-.6606.5639-.9116.2772-.2465.611-.4208.9717-.5074h.0226l3.3625-.75186c.3968-.14425.83-.15415 1.2329-.02819.2829.09185.5448.23875.7707.43225.0975.0811.1898.1684.2762.2613.1919.1661.4065.3041.6372.4097 3.8719 1.3646 7.012 3.2015 9.4203 5.5109 2.3994 2.2873 4.1337 5.1824 5.0184 8.3771.9097 3.3055 1.0394 6.4099.3891 9.3132"/><path fill="#AF6" fill-rule="evenodd" d="M25.2514 2.20492c-.4862 2.18278-1.5093 3.81172-3.0693 4.88682-1.5601 1.07511-3.6345 1.57632-6.2232 1.50364-.0093-.36189.0165-.72383.077-1.08074.1562-.85521.4832-1.67015.9615-2.39612.4783-.72597 1.098-1.34806 1.8222-1.8291 1.5406-1.05332 3.4076-1.52005 5.2627-1.31568.3972.04274.7902.11881 1.1747.22742" clip-rule="evenodd"/><path fill="#000" d="M25.0314.830858c-1.2299-.411926-2.5393-.529729-3.823-.343955-1.2886.179885-2.5181.655957-3.5918 1.390867-1.0327.70188-1.8702 1.65451-2.434 2.76857-.5347 1.06089-.7588 2.25124-.6466 3.43393.0178.129.0809.24746.178.33423.0971.08677.2219.13618.3521.13942.3026.02443.6014.04135.8909.04699 2.5862.07518 4.6606-.42603 6.2231-1.50364 1.5626-1.07761 2.5851-2.70655 3.0675-4.88682.0582-.26126.109-.53191.1522-.81385.0162-.12356-.013-.24878-.0821-.35247-.0691-.103683-.1735-.178789-.2938-.211391M21.4528 6.24583c-1.327.91722-3.1389 1.34075-5.4357 1.27058l-.3176-.01316c-.0113-.84796.1822-1.68612.5638-2.44341.472-.93896 1.1767-1.74134 2.0469-2.33064.8392-.57144 1.7907-.95737 2.7908-1.13206 1.0002-.1747 2.0262-.13413 3.0094.11899-.015.09022-.0338.18795-.0526.26501-.421 1.93468-1.2906 3.35687-2.6088 4.26658"/><path fill="#77E024" d="M24.1339 1.71197c-.015.08834-.0338.18796-.0545.26502-1.8551-.20437-3.722.26237-5.2627 1.31568-.7229.48138-1.3414 1.10342-1.8187 1.82902-.4773.72561-.8035 1.53991-.9593 2.39433-.1052 0-.2124 0-.3195-.01316-.0112-.84796.1822-1.68612.5639-2.44341.472-.93896 1.1766-1.74135 2.0468-2.33064.8393-.57144 1.7907-.95737 2.7909-1.13207 1.0002-.17469 2.0261-.13412 3.0094.119"/><path fill="#AF6" fill-rule="evenodd" d="M11.3165 6.74218c-.0409.43456-.1138.86551-.218 1.28936-.5419-.09211-1.0678-.26109-1.56195-.50183-.8395-.39326-1.55853-1.00391-2.08254-1.76866-.50248-.73389-.78187-1.5975-.80445-2.48664-.01219-.55974.07499-1.11719.2575-1.64648.46322.09006.91879.21573 1.36267.37591 2.24297.81948 3.25917 2.40018 3.04867 4.74209" clip-rule="evenodd"/><path fill="#000" d="M12.5647 2.77814C11.7301 1.54391 10.2534.735074 8.13457.351646l-.53755-.09774-.26314.447334c-.17197.293501-.31306.60404-.42102.92662-.18388.52899-.27172 1.08658-.25937 1.64648.02258.88914.30197 1.75276.80445 2.48665.52455.76425 1.24342 1.37478 2.08253 1.76865.49413.24074 1.02003.40972 1.56193.50184.4156.07313.8374.10461 1.2593.09397l.5826-.01503.126-.51499c.4924-1.98481.3232-3.59057-.5075-4.81729m-.7819 4.03351c-.1541-.01691-.3082-.03759-.4605-.06954-.3695-.07174-.7283-.19049-1.0676-.35336-.6266-.29745-1.16349-.75523-1.55625-1.32696-.37835-.55045-.5892-1.19868-.60709-1.86639-.0058-.40625.05776-.81052.18796-1.19539.02819-.08834.06391-.17668.09774-.26126 1.40966.33707 2.39324.91722 2.95084 1.74046.5576.82324.7111 1.93406.4605 3.33244"/><path fill="#77E024" d="M11.7786 6.81118c-.1541-.01692-.3082-.03759-.4604-.06954.2092-2.34192-.807-3.92262-3.04867-4.7421.02819-.08834.0639-.17668.09773-.26126 1.40966.33707 2.39334.91722 2.95094 1.74046.5576.82324.7111 1.93406.4604 3.33244Z"/><path fill="#000" fill-rule="evenodd" d="M8.84633 27.5505c.39578-.0653.80204-.0118 1.16737.1538.3654.1656.6734.4358.8852.7765.2117.3407.3177.7365.3045 1.1374-.0132.4009-.145.7889-.3787 1.1149-.2337.326-.5589.5754-.93434.7166-.37545.1412-.78435.1679-1.17497.0767-.39062-.0912-.74544-.2962-1.01955-.5891-.27411-.2928-.45522-.6604-.52042-1.0562-.08742-.5306.03949-1.0742.35284-1.5113.31335-.4371.78746-.7318 1.31807-.8193Z" clip-rule="evenodd"/><path fill="#fff" fill-rule="evenodd" d="M9.40908 27.7988c.13308-.0215.26956-.0032.39222.0527.12266.056.226.147.297.2616.071.1146.1064.2477.1018.3824-.0046.1348-.049.2651-.1276.3746-.0786.1096-.18789.1933-.31407.2408-.12618.0475-.26358.0565-.39488.0259-.1313-.0305-.25061-.0993-.34286-.1976s-.15331-.2217-.17547-.3547c-.01478-.0887-.01188-.1793.00849-.2669.02037-.0875.05782-.1701.11022-.2431.05239-.073.11868-.1349.19508-.1822.07639-.0473.16137-.0791.25007-.0935Z" clip-rule="evenodd"/><path fill="#000" fill-rule="evenodd" d="M22.2367 25.3454c.3958-.0653.802-.0117 1.1674.1538.3653.1656.6734.4359.8851.7765.2118.3407.3178.7365.3046 1.1375-.0132.4009-.145.7889-.3788 1.1149-.2337.326-.5588.5753-.9343.7165-.3755.1412-.7843.1679-1.175.0767-.3906-.0912-.7454-.2962-1.0195-.589-.2741-.2929-.4552-.6605-.5204-1.0562-.0869-.5306.0402-1.074.3534-1.5109.3133-.4369.7871-.7318 1.3175-.8198Z" clip-rule="evenodd"/><path fill="#fff" fill-rule="evenodd" d="M22.7992 25.5937c.133-.0215.2695-.0032.3922.0528.1226.0559.226.1469.2969.2615.071.1146.1064.2477.1019.3824-.0046.1348-.049.2651-.1276.3747-.0786.1095-.1879.1933-.3141.2407-.1262.0475-.2636.0565-.3949.026-.1313-.0306-.2506-.0994-.3428-.1977-.0923-.0983-.1533-.2217-.1755-.3547-.0288-.1789.0143-.3619.12-.5091.1056-.1472.2652-.2466.4439-.2766Z" clip-rule="evenodd"/><path fill="#000" fill-rule="evenodd" d="M20.9107 31.2457c-.3759-1.0507-1.4172-.6785-2.2404-.547-1.4623.2319-2.9233.4718-4.3831.7199-.8195.141-1.936.1259-1.9472 1.2349-.017 1.2705 1.8212 3.0185 4.0786 3.0956.5847.0293 1.1685-.0728 1.7085-.2989 2.0675-.8288 3.1952-3.026 2.7836-4.2045Zm-4.135 1.7423h.0545c.9717-.1597 1.8307.1448 1.919.6786.2124 1.2893-3.3606 1.8795-3.5711.5882-.0884-.5356.6315-1.0957 1.6014-1.2574" clip-rule="evenodd"/><path fill="#AF6" fill-rule="evenodd" d="M8.83966 32.0328c1.24614-.2048 2.35504.2331 2.47724.9774.1222.7443-.7875 1.5149-2.03367 1.7198-1.24614.2049-2.35319-.2331-2.47536-.9774-.12217-.7443.78753-1.5149 2.03179-1.7198ZM23.4529 29.609c1.2443-.2049 2.3532.2331 2.4754.9774.1222.7443-.7856 1.5149-2.0318 1.7198-1.2461.2048-2.3532-.2331-2.4753-.9774-.1222-.7443.7875-1.5149 2.0317-1.7198Z" clip-rule="evenodd"/><path fill="#FF7110" fill-rule="evenodd" d="M16.7764 32.8645c1.0526-.173 1.9886.1879 2.092.8251.1033.6372-.6654 1.28-1.7161 1.4529-1.0506.1729-1.9866-.1974-2.0919-.8251-.1053-.6278.6654-1.28 1.716-1.4529Z" clip-rule="evenodd"/><path fill="#0C8E41" d="M20.2413 48.288c-.3021.1559-.6326.2492-.9717.2744-1.0901.0959-2.0356-.498-2.9979-1.0995-.5148-.3435-1.0551-.647-1.6164-.9078-.5845-.2594-1.2236-.515-1.8927-.7782-1.6615-.6634-3.49971-1.3946-4.79848-2.3118-1.6293-1.1274-3.03202-2.5511-4.13501-4.197a.1829481.1829481 0 0 1-.01692-.0188c-1.41154-2.1784-2.3795-5.7966-2.50919-8.27.00183-.0144.00183-.0289 0-.0433v-.1109c0-.2387-.01316-.4755-.01316-.7123-.02475-2.7637.53975-5.501 1.65588-8.0294 1.21043-2.7141 3.08998-5.1744 5.63865-7.381.50442-.3395.98255-.7165 1.43033-1.1278.3303-.2854.6049-.6296.8101-1.0149.0168-.028.0306-.0576.0413-.0884.0385-.15.1167-.2869.2266-.396.1098-.1092.2472-.1867.3975-.2242l1.9302-.4361c-.0225.0451-.0451.0884-.0657.1354-.1655.2996-.3774.5711-.6278.8044-6.34286 4.9658-9.35014 10.7435-9.02184 17.3332.37591 6.6837 3.37818 11.6062 9.00684 14.7676 1.9923 1.1277 3.5279 1.5037 5.1762 2.3701.8402.4398 1.5638 1.0507 2.3683 1.4567"/><path fill="#000" d="m4.02034 39.5699-1.03375.7518h-.01691C1.2499 37.9234.139087 33.7866 0 31.0067v-.577h1.28749c0 .1767 0 .359.01504.5507.12968 2.4697 1.09765 6.0879 2.50919 8.27.06954.1109.14473.218.21803.3214"/><path fill="#fff" fill-rule="evenodd" d="M36.8649 33.9144c-.4398-.5469-.5846-1.4585-.5846-2.7723l-.0733-10.6176c.0004-.3836.0639-.7646.188-1.1277.0532-.3165.1779-.6167.3646-.8777.1667-.2206.3635-.4167.5846-.5827.2388-.1435.4962-.2535.7649-.327.3024-.0467.6076-.0718.9135-.0752.8759 0 1.5694.1879 2.0055.5488.5112.3646.7311 1.1277.7311 2.1878v8.8602l3.5392-.2913c.2556 0 .547 0 .6936.109.2326.0453.4401.1752.5826.3646.1625.1397.291.3145.3759.5112.0832.2657.1497.5362.1993.8101.0792.285.1159.5802.109.8759 0 .9116-.0357 1.6427-.2914 2.0788-.218.4755-.6578.6954-1.3495.7668l-6.678.438c-.8045.109-1.4228-.0733-1.8251-.5094-.0729-.1298-.1578-.2525-.2537-.3665m23.2802-9.1608c.8759 0 1.5036.1447 1.825.4003.3647.2556.547.8026.547 1.5037 0 .5093-.0357 1.9716-.4737 2.1896-.4379.2181-1.0939.3647-2.0054.3647H56.057l-.1109 1.6051 5.3267.0357c.9867 0 1.6427.1109 2.0073.438.438.2575.6203.7311.6203 1.3871 0 .8401-.2556 1.3514-.6917 1.6784-.4755.3289-1.1691.5112-2.1915.5112h-8.0276c-.9548-.0075-1.7066-.2894-2.1145-.8533-.4379-.4755-.6954-1.389-.6954-2.7385V20.816c0-1.9717.9868-2.9547 2.8193-2.9547h8.0276c1.0224 0 1.716.109 2.1915.4361.4361.2556.6917.8026.6917 1.5694 0 .7669-.188 1.2762-.6203 1.5318-.3646.329-1.0206.438-2.0073.438h-5.3718v2.9208h4.2309Zm12.3365.991c.9115 1.1278 3.5711 5.3285 5.0353 5.3285.5146.0011 1.0102-.1945 1.3852-.5469 1.3514-1.3871 1.3871-2.0074 3.1388-3.6501l.1466 5.8755c0 .6559.1466 1.2405.5094 1.5694.2932.3646 1.7517.5469 2.4096.5469.7293 0 1.2405-.1879 1.6051-.5112.3646-.3233.4737-.9398.4737-1.8965V21.5815c0-1.3157-.2557-2.2555-.874-2.8814-3.3945-3.7948-7.3716 2.481-9.1233 4.4132-1.8251-1.8965-7.2983-8.6459-9.9241-3.7196-.3289.5826-.4398 1.2762-.4398 2.1521v10.8374c0 1.6428 1.0225 2.481 3.1031 2.481.765 0 1.3496-.218 1.7875-.6559.5094-.4023.7293-1.0582.7669-1.9717v-6.4882Zm25.1381-8.2175c-9.0087-.3289-10.9014 17.3332 0 17.3332 10.8751 0 9.0221-17.0024 0-17.3332Zm3.6071 10.6364c-.255.7117-.69 1.3451-1.2633 1.8382-.2065.1808-.4258.3467-.656.4962-.1522.1033-.297.2048-.4417.3232-.0805.0703-.1571.145-.2293.2237-.1019.116-.2167.22-.3421.3101-.1707.125-.3813.1832-.592.1636-.3759-.0226-.6109-.2369-.8609-.453-.0988-.0923-.2044-.1771-.3157-.2537-.1222-.079-.265-.1636-.4116-.2519-.3981-.2173-.7707-.4783-1.1109-.7781-.3461-.3323-.6328-.7213-.8476-1.1503-.329-.6522-.4605-1.7085-.4079-2.3983-.0017-.015-.0017-.0302 0-.0451v-.0978c.076-.7376.3079-1.4507.6804-2.0919.413-.6894.9757-1.2772 1.6465-1.7198.0058-.0015.0111-.0048.015-.0094.1178-.0608.2314-.1292.3402-.2049.0551-.0385.1045-.0847.1466-.1372.0342-.0823.0908-.1533.1635-.2048.0714-.0514.155-.0831.2425-.0921l.8101-.0696c.0988-.0222.2021-.0103.2932.0338.0634.0339.1201.0792.1673.1335l.0582.0752c.0397.0469.0852.0886.1354.124.7934.4124 1.4899.9891 2.0431 1.6916.495.6543.811 1.4255.919 2.2386.123.7727.058 1.5636-.188 2.3062m22.784 4.2888c0 .6936-.188 1.3157-.62 1.7518-.365.4379-2.225.5469-3.028.5469-.246.0085-.492-.0161-.731-.0733-.436-.109-2.808-1.5318-6.056-4.3793l-.145 2.2253c-.039.8402-.111 1.3871-.475 1.6804-.293.2913-2.117.6559-2.774.6559-.765 0-1.277-.1879-1.679-.5112-.291-.3646-.473-.9398-.473-1.6766V20.5248c0-.9492.255-1.6804.693-2.1183.474-.5094 1.203-.8007 2.116-.8007.506-.0073 1.007.1047 1.461.3271.4.1879.985.4379 1.349 1.0581l4.598 6.4224 1.789-5.5841c.188-.7292.188-1.2762.474-1.6408.431-.3518.976-.5336 1.532-.5113.766 0 1.24.188 1.531.4756.365.327.438.9115.438 1.6408v12.6625Z" clip-rule="evenodd"/><path fill="#fff" d="M36.9587 42.8223V36.615h.7517v5.5405h2.8854v.6668h-3.6371Zm6.6559.097c-.4486 0-.8356-.0991-1.1609-.2971-.3233-.2-.5728-.4789-.7486-.8365-.1738-.3597-.2607-.7779-.2607-1.2548 0-.4769.0869-.8971.2607-1.2609.1758-.3657.4203-.6506.7335-.8547.3152-.2061.6829-.3091 1.1032-.3091.2425 0 .4819.0404.7183.1212.2365.0808.4516.2122.6456.394.194.1799.3486.4183.4638.7153.1151.2971.1727.6628.1727 1.0972v.3031h-3.5886v-.6183h2.8612c0-.2627-.0525-.4971-.1576-.7032-.1031-.2061-.2506-.3687-.4425-.4879-.19-.1193-.4142-.1789-.6729-.1789-.2849 0-.5314.0708-.7395.2122-.2061.1394-.3647.3213-.4759.5456-.1111.2242-.1667.4647-.1667.7213v.4122c0 .3516.0606.6496.1819.8941.1232.2425.294.4274.5122.5547.2182.1253.4718.1879.7608.1879.1879 0 .3576-.0263.5092-.0788.1535-.0546.2859-.1354.397-.2425.1111-.1091.197-.2445.2576-.4061l.6911.194c-.0728.2344-.195.4405-.3668.6183-.1717.1758-.3839.3132-.6365.4122-.2525.097-.5364.1455-.8516.1455Zm4.3857.0121c-.295 0-.5628-.0556-.8032-.1667-.2405-.1132-.4314-.2758-.5729-.488-.1414-.2142-.2121-.4728-.2121-.7759 0-.2667.0525-.4829.1576-.6486.1051-.1677.2455-.2991.4213-.394.1758-.095.3698-.1657.5819-.2122.2142-.0485.4294-.0869.6456-.1152.2829-.0363.5122-.0636.688-.0818.1778-.0202.3072-.0536.388-.1.0828-.0465.1242-.1273.1242-.2425v-.0243c0-.299-.0818-.5314-.2455-.6971-.1616-.1656-.4071-.2485-.7365-.2485-.3415 0-.6092.0748-.8032.2243-.1939.1495-.3303.3091-.4091.4789l-.679-.2425c.1213-.2829.2829-.5031.485-.6607.2041-.1597.4263-.2708.6668-.3334.2425-.0647.4809-.097.7153-.097.1495 0 .3213.0182.5152.0545.196.0344.385.1061.5668.2152.1839.1091.3364.2738.4577.4941.1212.2202.1818.5152.1818.885v3.0673h-.7153v-.6305h-.0363c-.0485.1011-.1293.2092-.2425.3243-.1132.1152-.2637.2132-.4516.294-.1879.0809-.4173.1213-.688.1213Zm.1091-.6426c.2829 0 .5213-.0555.7153-.1667.196-.1111.3435-.2546.4425-.4304.101-.1758.1515-.3606.1515-.5546v-.6547c-.0303.0364-.0969.0697-.2.1-.101.0283-.2182.0536-.3516.0758-.1313.0202-.2596.0384-.3849.0546-.1233.0141-.2233.0262-.3001.0363-.1859.0243-.3596.0637-.5213.1182-.1596.0526-.2889.1324-.3879.2395-.097.105-.1455.2485-.1455.4304 0 .2485.0919.4364.2758.5637.1859.1253.4213.1879.7062.1879Zm3.3302.5335v-4.6555h.691v.7032h.0485c.0849-.2304.2385-.4173.4607-.5608.2223-.1434.4729-.2151.7517-.2151.0525 0 .1182.001.197.003.0788.002.1384.005.1788.0091v.7274c-.0242-.0061-.0798-.0152-.1667-.0273-.0848-.0141-.1747-.0212-.2697-.0212-.2263 0-.4284.0475-.6062.1425-.1758.0929-.3152.2222-.4183.3879-.101.1637-.1515.3506-.1515.5607v2.9461h-.7153Zm3.8909-2.8006v2.8006h-.7153v-4.6555h.6911v.7274h.0606c.1091-.2364.2748-.4263.4971-.5698.2222-.1455.5092-.2182.8607-.2182.3153 0 .5911.0646.8275.194.2364.1273.4203.3212.5516.5819.1313.2586.197.586.197.982v2.9582h-.7153v-2.9097c0-.3657-.095-.6506-.2849-.8547-.1899-.2061-.4506-.3092-.782-.3092-.2283 0-.4324.0495-.6122.1485-.1778.0991-.3183.2435-.4213.4335-.1031.1899-.1546.4202-.1546.691Zm5.3443 1.9519-.0485.3274c-.0344.2303-.0869.4768-.1576.7395-.0687.2627-.1405.5102-.2152.7426-.0748.2323-.1364.4172-.1849.5546h-.5456c.0263-.1293.0606-.3.1031-.5122.0424-.2122.0848-.4496.1273-.7123.0444-.2606.0808-.5273.1091-.8001l.0364-.3395h.7759Zm7.2173-3.8068c-.0364-.3071-.1839-.5456-.4425-.7153-.2586-.1697-.5759-.2546-.9517-.2546-.2748 0-.5153.0445-.7214.1334-.204.0889-.3637.2111-.4788.3667-.1132.1556-.1698.3324-.1698.5304 0 .1657.0394.3082.1182.4274.0809.1172.1839.2152.3092.294.1253.0768.2566.1404.394.1909.1374.0485.2637.0879.3789.1182l.6304.1698c.1616.0424.3415.101.5395.1757.2.0748.391.1768.5728.3062.1839.1273.3354.2909.4547.491.1192.2.1788.4455.1788.7365 0 .3354-.0879.6385-.2637.9093-.1738.2707-.4284.4859-.7638.6455-.3334.1597-.7385.2395-1.2154.2395-.4445 0-.8294-.0718-1.1548-.2152-.3233-.1435-.5778-.3435-.7637-.6001-.1839-.2567-.288-.5547-.3122-.8942h.7759c.0202.2344.099.4284.2364.582.1394.1515.3152.2647.5274.3394.2142.0728.4445.1092.691.1092.2869 0 .5446-.0465.7729-.1395.2283-.0949.4092-.2263.5425-.394.1334-.1697.2001-.3677.2001-.594 0-.2061-.0576-.3739-.1728-.5032-.1152-.1293-.2667-.2344-.4546-.3152-.1879-.0808-.391-.1515-.6092-.2121l-.7638-.2183c-.485-.1394-.8689-.3384-1.1518-.5971-.2829-.2586-.4243-.597-.4243-1.0153 0-.3476.094-.6506.2819-.9093.1899-.2606.4445-.4627.7638-.6062.3212-.1455.6799-.2182 1.0759-.2182.4001 0 .7557.0717 1.0669.2152.3112.1414.5577.3354.7396.5819.1838.2465.2808.5264.2909.8396h-.7274Zm2.6664 1.8549v2.8006h-.7152V36.615h.7152v2.2792h.0607c.1091-.2404.2727-.4314.491-.5728.2202-.1435.5132-.2152.8789-.2152.3173 0 .5951.0636.8335.1909.2385.1253.4233.3183.5547.5789.1333.2587.2.588.2.9881v2.9582h-.7153v-2.9097c0-.3698-.0959-.6557-.2879-.8577-.1899-.2041-.4536-.3062-.7911-.3062-.2344 0-.4445.0495-.6304.1485-.1839.0991-.3294.2435-.4364.4335-.1051.1899-.1577.4202-.1577.691Zm5.6974 2.9097c-.295 0-.5628-.0556-.8032-.1667-.2405-.1132-.4314-.2758-.5728-.488-.1415-.2142-.2122-.4728-.2122-.7759 0-.2667.0525-.4829.1576-.6486.1051-.1677.2455-.2991.4213-.394.1758-.095.3698-.1657.5819-.2122.2142-.0485.4294-.0869.6456-.1152.2829-.0363.5122-.0636.688-.0818.1778-.0202.3072-.0536.388-.1.0828-.0465.1243-.1273.1243-.2425v-.0243c0-.299-.0819-.5314-.2456-.6971-.1616-.1656-.4071-.2485-.7365-.2485-.3414 0-.6092.0748-.8032.2243-.1939.1495-.3303.3091-.4091.4789l-.6789-.2425c.1212-.2829.2828-.5031.4849-.6607.2041-.1597.4263-.2708.6668-.3334.2425-.0647.4809-.097.7153-.097.1495 0 .3213.0182.5152.0545.196.0344.385.1061.5668.2152.1839.1091.3365.2738.4577.4941.1212.2202.1818.5152.1818.885v3.0673h-.7152v-.6305h-.0364c-.0485.1011-.1293.2092-.2425.3243-.1131.1152-.2637.2132-.4516.294-.1879.0809-.4173.1213-.688.1213Zm.1091-.6426c.2829 0 .5213-.0555.7153-.1667.196-.1111.3435-.2546.4425-.4304.101-.1758.1516-.3606.1516-.5546v-.6547c-.0304.0364-.097.0697-.2001.1-.101.0283-.2182.0536-.3516.0758-.1313.0202-.2596.0384-.3849.0546-.1233.0141-.2233.0262-.3001.0363-.1859.0243-.3596.0637-.5213.1182-.1596.0526-.2889.1324-.3879.2395-.097.105-.1455.2485-.1455.4304 0 .2485.0919.4364.2758.5637.1859.1253.4213.1879.7062.1879Zm3.3302.5335v-4.6555h.6911v.7032h.0484c.0849-.2304.2385-.4173.4607-.5608.2223-.1434.4729-.2151.7517-.2151.0525 0 .1182.001.197.003.0788.002.1384.005.1788.0091v.7274c-.0242-.0061-.0798-.0152-.1667-.0273-.0848-.0141-.1747-.0212-.2697-.0212-.2263 0-.4284.0475-.6062.1425-.1758.0929-.3152.2222-.4183.3879-.101.1637-.1515.3506-.1515.5607v2.9461h-.7153Zm4.9858.097c-.4485 0-.8355-.0991-1.1608-.2971-.3233-.2-.5728-.4789-.7486-.8365-.1738-.3597-.2607-.7779-.2607-1.2548 0-.4769.0869-.8971.2607-1.2609.1758-.3657.4203-.6506.7334-.8547.3153-.2061.683-.3091 1.1033-.3091.2425 0 .4819.0404.7183.1212.2364.0808.4516.2122.6456.394.194.1799.3486.4183.4637.7153.1152.2971.1728.6628.1728 1.0972v.3031h-3.5886v-.6183h2.8612c0-.2627-.0526-.4971-.1576-.7032-.1031-.2061-.2506-.3687-.4425-.4879-.19-.1193-.4143-.1789-.6729-.1789-.2849 0-.5314.0708-.7395.2122-.2061.1394-.3648.3213-.4759.5456-.1111.2242-.1667.4647-.1667.7213v.4122c0 .3516.0606.6496.1819.8941.1232.2425.294.4274.5122.5547.2182.1253.4718.1879.7607.1879.188 0 .3577-.0263.5092-.0788.1536-.0546.2859-.1354.3971-.2425.1111-.1091.197-.2445.2576-.4061l.6911.194c-.0728.2344-.195.4405-.3668.6183-.1717.1758-.3839.3132-.6365.4122-.2526.097-.5364.1455-.8517.1455Zm4.0827-.9457-.0485.3274c-.0344.2303-.0869.4768-.1576.7395-.0687.2627-.1405.5102-.2152.7426-.0748.2323-.1364.4172-.1849.5546h-.5456c.0263-.1293.0606-.3.1031-.5122.0424-.2122.0848-.4496.1273-.7123.0444-.2606.0808-.5273.1091-.8001l.0364-.3395h.7759Zm8.8176-3.4188h-.7516c-.0445-.2163-.1223-.4062-.2334-.5699-.1091-.1636-.2425-.301-.4001-.4122-.1556-.1131-.3283-.198-.5183-.2546-.1899-.0565-.3879-.0848-.594-.0848-.3759 0-.7163.0949-1.0214.2849-.3031.1899-.5446.4698-.7244.8395-.1778.3698-.2668.8234-.2668 1.3609s.089.9911.2668 1.3609c.1798.3698.4213.6496.7244.8396.3051.1899.6455.2849 1.0214.2849.2061 0 .4041-.0283.594-.0849.19-.0566.3627-.1404.5183-.2516.1576-.1131.291-.2515.4001-.4152.1111-.1657.1889-.3556.2334-.5698h.7516c-.0565.3172-.1596.6011-.3091.8517-.1495.2505-.3354.4637-.5577.6395-.2223.1738-.4718.3061-.7486.397-.2748.091-.5688.1364-.882.1364-.5294 0-1.0002-.1293-1.4124-.3879-.4122-.2587-.7365-.6264-.973-1.1033-.2364-.4768-.3546-1.0426-.3546-1.6973 0-.6547.1182-1.2204.3546-1.6973.2365-.4768.5608-.8446.973-1.1032.4122-.2587.883-.388 1.4124-.388.3132 0 .6072.0455.882.1364.2768.0909.5263.2243.7486.4001.2223.1737.4082.3859.5577.6365.1495.2485.2526.5324.3091.8517Zm1.1177 4.2675v-4.6555h.691v.7032h.0485c.0849-.2304.2384-.4173.4607-.5608.2218-.1434.4728-.2151.7518-.2151.052 0 .118.001.197.003.079.002.138.005.179.0091v.7274c-.025-.0061-.08-.0152-.167-.0273-.085-.0141-.175-.0212-.27-.0212-.226 0-.428.0475-.6059.1425-.1758.0929-.3152.2222-.4183.3879-.101.1637-.1515.3506-.1515.5607v2.9461h-.7153Zm4.986.097c-.449 0-.836-.0991-1.161-.2971-.323-.2-.573-.4789-.749-.8365-.173-.3597-.26-.7779-.26-1.2548 0-.4769.087-.8971.26-1.2609.176-.3657.421-.6506.734-.8547.315-.2061.683-.3091 1.103-.3091.243 0 .482.0404.718.1212.237.0808.452.2122.646.394.194.1799.349.4183.464.7153.115.2971.172.6628.172 1.0972v.3031h-3.588v-.6183h2.861c0-.2627-.052-.4971-.158-.7032-.103-.2061-.25-.3687-.442-.4879-.19-.1193-.414-.1789-.673-.1789-.285 0-.531.0708-.739.2122-.207.1394-.365.3213-.476.5456-.111.2242-.167.4647-.167.7213v.4122c0 .3516.061.6496.182.8941.123.2425.294.4274.512.5547.218.1253.472.1879.761.1879.188 0 .357-.0263.509-.0788.154-.0546.286-.1354.397-.2425.111-.1091.197-.2445.258-.4061l.691.194c-.073.2344-.195.4405-.367.6183-.172.1758-.384.3132-.637.4122-.252.097-.536.1455-.851.1455Zm4.386.0121c-.295 0-.563-.0556-.804-.1667-.24-.1132-.431-.2758-.572-.488-.142-.2142-.213-.4728-.213-.7759 0-.2667.053-.4829.158-.6486.105-.1677.245-.2991.421-.394.176-.095.37-.1657.582-.2122.214-.0485.43-.0869.646-.1152.283-.0363.512-.0636.688-.0818.178-.0202.307-.0536.388-.1.083-.0465.124-.1273.124-.2425v-.0243c0-.299-.082-.5314-.246-.6971-.161-.1656-.407-.2485-.736-.2485-.341 0-.609.0748-.803.2243-.194.1495-.331.3091-.409.4789l-.679-.2425c.121-.2829.283-.5031.485-.6607.204-.1597.426-.2708.666-.3334.243-.0647.481-.097.716-.097.149 0 .321.0182.515.0545.196.0344.385.1061.567.2152.184.1091.336.2738.457.4941.122.2202.182.5152.182.885v3.0673h-.715v-.6305h-.036c-.049.1011-.13.2092-.243.3243-.113.1152-.264.2132-.451.294-.188.0809-.418.1213-.688.1213Zm.109-.6426c.283 0 .521-.0555.715-.1667.196-.1111.343-.2546.442-.4304.101-.1758.152-.3606.152-.5546v-.6547c-.03.0364-.097.0697-.2.1-.101.0283-.218.0536-.352.0758-.131.0202-.259.0384-.385.0546-.123.0141-.223.0262-.3.0363-.186.0243-.359.0637-.521.1182-.16.0526-.289.1324-.388.2395-.097.105-.145.2485-.145.4304 0 .2485.092.4364.275.5637.186.1253.422.1879.707.1879Zm5.354-4.122v.6062h-2.412v-.6062h2.412Zm-1.709-1.1154h.715v4.4373c0 .202.03.3536.088.4546.061.099.138.1657.231.2.095.0324.195.0485.3.0485.078 0 .143-.004.194-.0121.05-.0101.091-.0182.121-.0242l.145.6425c-.048.0182-.116.0364-.203.0546-.087.0202-.197.0303-.33.0303-.202 0-.4-.0435-.594-.1303-.192-.0869-.352-.2193-.479-.3971-.125-.1778-.188-.4021-.188-.6729v-4.6312Zm4.687 5.8679c-.448 0-.835-.0991-1.16-.2971-.324-.2-.573-.4789-.749-.8365-.174-.3597-.261-.7779-.261-1.2548 0-.4769.087-.8971.261-1.2609.176-.3657.42-.6506.733-.8547.316-.2061.683-.3091 1.104-.3091.242 0 .482.0404.718.1212.236.0808.452.2122.646.394.193.1799.348.4183.463.7153.115.2971.173.6628.173 1.0972v.3031h-3.589v-.6183h2.862c0-.2627-.053-.4971-.158-.7032-.103-.2061-.251-.3687-.443-.4879-.189-.1193-.414-.1789-.672-.1789-.285 0-.532.0708-.74.2122-.206.1394-.365.3213-.476.5456-.111.2242-.166.4647-.166.7213v.4122c0 .3516.06.6496.181.8941.124.2425.294.4274.513.5547.218.1253.471.1879.76.1879.188 0 .358-.0263.51-.0788.153-.0546.285-.1354.397-.2425.111-.1091.197-.2445.257-.4061l.691.194c-.072.2344-.195.4405-.366.6183-.172.1758-.384.3132-.637.4122-.253.097-.536.1455-.852.1455Z"/></svg>